<svg height="550" viewBox="0 0 1381 550" width="1381" xmlns="http://www.w3.org/2000/svg" xmlns:xlink="http://www.w3.org/1999/xlink"><linearGradient id="a"><stop offset="0" stop-color="#4274e3" stop-opacity="0"/><stop offset="1" stop-color="#3e72e1"/></linearGradient><linearGradient id="b" x1="69.096%" x2="60.82%" xlink:href="#a" y1="-19.652%" y2="99.237%"/><linearGradient id="c" x1="60.806%" x2="17.473%" xlink:href="#a" y1="123.746%" y2="44.528%"/><linearGradient id="d" x1="123.75%" x2="44.628%" xlink:href="#a" y1="39.077%" y2="82.571%"/><linearGradient id="e" x1="69.653%" x2="10.924%" xlink:href="#a" y1="-27.914%" y2="52.691%"/><g fill="none" opacity=".07"><path d="m1362.16 183.553c4.98 8.895 18.36 5.588 18.19-4.497l-2.96-174.101c-.06-3.50254-3.68-5.89293-6.87-4.5324l-79.8 34.0526c-5.22 2.2258-7.28 8.5073-4.45 13.5616l44.73 79.8692z" fill="url(#b)"/><path d="m491.093 516.218c-.289 1.109.03 2.289.84 3.102l28.906 29.034c1.681 1.688 4.548 1.049 5.352-1.192l11.885-33.12c.422-1.178.129-2.493-.754-3.38l-31.49-31.629c-1.771-1.779-4.806-.959-5.438 1.469z" fill="url(#c)"/><path d="m663.283 66.9216c.843.2174 1.737-.0268 2.353-.6421l21.979-21.9796c1.278-1.2778.789-3.452-.913-4.0584l-25.148-8.9614c-.894-.3187-1.892-.0939-2.563.5775l-23.944 23.9443c-1.347 1.3464-.719 3.6474 1.124 4.123z" fill="url(#d)"/><path d="m.7682 116.568c-.2201-1.42.3485-2.842 1.4952-3.739l21.4861-16.817c2.3799-1.863 5.9634-.671 6.69 2.226l5.4941 21.902c.382 1.522-.1719 3.117-1.4229 4.096l-23.3573 18.281c-2.5078 1.963-6.281.522-6.7623-2.583z" fill="url(#e)"/></g></svg>