<svg xmlns="http://www.w3.org/2000/svg" width="1440" height="544" viewBox="0 0 1440 544"><path fill="#FFF" d="M939.979 458.374C943.212 459.344 945.686 461.95 946.506 465.247L962.877 531.107C964.613 538.087 958.461 544.578 951.452 543.163L897.714 532.315C894.094 531.584 891.229 528.834 890.333 525.229L872.545 453.671C870.716 446.311 877.608 439.664 884.825 441.829L939.979 458.374zM1104.16 26.3712C1106.35 25.8133 1108.67 26.4925 1110.25 28.1571L1139.85 59.347C1143.12 62.802 1141.79 68.603 1137.35 70.176L1103.82 82.074C1101.49 82.901 1098.9 82.271 1097.18 80.455L1065 46.548C1061.55 42.908 1063.24 36.7727 1068.04 35.5528L1104.16 26.3712zM1353.76 71.464C1354.86 71.18 1356.03 71.518 1356.82 72.354L1374.43 90.911C1376.07 92.635 1375.41 95.529 1373.2 96.322L1352.89 103.613C1351.72 104.032 1350.42 103.718 1349.55 102.807L1330.39 82.615C1328.67 80.799 1329.51 77.739 1331.9 77.12L1353.76 71.464zM957.521 233.037C958.515 232.465 959.133 231.41 959.145 230.263L959.579189 189.295C959.604 186.913 957.138 185.317 954.976 186.315L923.028 201.063C921.892 201.587 921.16 202.719 921.147 203.97L920.6738 248.6C920.647 251.11 923.36 252.699 925.535 251.447L957.521 233.037zM.302491 502.341L94.8569 326.549C100.691 315.702 93.6787 302.143 81.5608 300.839L.302491 292.098.302491 397.219.302491 502.341zM460 6.7471L584.784 71.755C595.615 77.398 608.425 70.049 609.209 57.743L612.841.6879 536.42 3.7176 460 6.7471z" opacity=".05"/></svg>