<svg height="731" viewBox="0 0 1440 731" width="1440" xmlns="http://www.w3.org/2000/svg"><path d="m.0378885 730.341 97.6597115-176.11c5.9494-10.728-.9891-24.046-13.1896-25.319l-84.4701115-8.814v105.121zm309.9621115-724.0621 121.426 60.9221c10.964 5.501 23.985-1.98 24.753-14.223l3.319-52.876-74.749 3.0885zm923.74 127.9881c-3.34.819-6.86-.187-9.27-2.645l-47.65-48.699c-4.99-5.109-2.96-13.685 3.8-16.002l54-18.51c3.55-1.216 7.48-.283 10.1 2.399l51.81 52.95c5.27 5.384 2.68 14.455-4.64 16.248zm69.42 458.785c-1.66 1.591-4.03 2.187-6.24 1.569l-42.23-11.81c-4.58-1.282-6.27-6.906-3.14-10.499l24.14-27.76c1.64-1.889 4.23-2.664 6.64-1.989l45.9 12.839c4.84 1.351 6.37 7.444 2.75 10.92zm-245.39 89.6c-.83.801-2.02 1.104-3.13.793l-25.1-7.021c-2.29-.64-3.14-3.442-1.59-5.241l14.57-16.869c.82-.951 2.12-1.342 3.33-1.003l27.31 7.64c2.41.674 3.18 3.709 1.38 5.451zm273.01-344.192c-.6.998-.61 2.239-.04 3.252l20.11 35.735c1.16 2.061 4.07 2.227 5.46.31l21.28-29.42c.74-1.026.82-2.388.19-3.491l-21.92-38.946c-1.22-2.171-4.33-2.21-5.61-.071z" fill="#fff" opacity=".05"/></svg>