<svg height="50" viewBox="0 0 50 50" width="50" xmlns="http://www.w3.org/2000/svg"><g fill="none"><rect fill="#bfd1f4" height="50" rx="25" width="50"/><rect fill="#4379e6" height="40" rx="20" width="40" x="5" y="5"/><g fill="#fff" transform="translate(15 16)"><path d="m12.5003 4.4141c-.46 0-.8333-.3734-.8333-.8334v-1.25h-3.3333v1.25c0 .46-.3734.8334-.8334.8334s-.8333-.3734-.8333-.8334v-1.25c0-.9191.7475-1.6666 1.6667-1.6666h3.3333c.9191 0 1.6666.7475 1.6666 1.6666v1.25c0 .46-.3733.8334-.8333.8334zm-1.9086 7.4028c-.15.0584-.3667.1-.5917.1s-.4417-.0416-.6417-.1166l-9.3583-3.1167v6.3583c0 1.2667 1.025 2.2917 2.2917 2.2917h15.4166c1.2667 0 2.2917-1.025 2.2917-2.2917v-6.3583z"/><path d="m20 5.4596v1.9084l-9.8 3.2666c-.0667.025-.1333.0334-.2.0334s-.1333-.0084-.2-.0334l-9.8-3.2666v-1.9084c0-1.2666 1.025-2.2916 2.2917-2.2916h15.4166c1.2667 0 2.2917 1.025 2.2917 2.2916z"/></g></g></svg>