<svg height="50" viewBox="0 0 50 50" width="50" xmlns="http://www.w3.org/2000/svg" xmlns:xlink="http://www.w3.org/1999/xlink"><linearGradient id="a" x1="100.862%" x2="-13.057%" y1="-4.545%" y2="12.443%"><stop offset="0" stop-color="#467ce8"/><stop offset="1" stop-color="#2e63d6"/></linearGradient><g fill="none" fill-rule="evenodd"><g fill-rule="nonzero"><rect fill="url(#a)" height="50" rx="25" width="50"/><path d="m14.1993 24.842c0-.9585 1.0682-1.5301 1.8656-.9985l8.2687 5.5125c.4031.2687.9282.2687 1.3313 0l8.2687-5.5125c.7975-.5316 1.8657.04 1.8657.9985v10.9578c0 .6627-.5373 1.2-1.2 1.2h-19.2c-.6628 0-1.2-.5373-1.2-1.2z" fill="#bfd1f4"/><path d="m16.5997 16.6001c0-.6628.5372-1.2 1.2-1.2h14.4c.6627 0 1.2.5372 1.2 1.2v5.7562c0 .4012-.2005.7758-.5343.9984l-7.2 4.8014c-.4031.2688-.9284.2688-1.3315 0l-7.2-4.8014c-.3338-.2226-.5342-.5972-.5342-.9984z" fill="#fff"/></g><path d="m25.5995 18.3993c0-.3314-.2686-.6-.6-.6-.3313 0-.6.2686-.6.6v.6001c-.9941 0-1.8.8059-1.8 1.8s.8059 1.8 1.8 1.8h.5753c.0082.0003.0165.0005.0248.0005h.6c.3314 0 .6.2686.6.6s-.2686.6-.6.6h-.5723c-.0092-.0004-.0185-.0006-.0278-.0006-.0092 0-.0185.0002-.0277.0006h-1.7722c-.3314 0-.6.2686-.6.6s.2686.6.6.6h1.1999v.5994c0 .3313.2687.6.6.6.3314 0 .6-.2687.6-.6v-.5994h.0001c.9941 0 1.8-.8059 1.8-1.8s-.8059-1.8-1.8-1.8h-.5753c-.0083-.0004-.0165-.0005-.0248-.0005h-.6c-.3314 0-.6-.2686-.6-.6s.2686-.6.6-.6h2.4c.3314 0 .6-.2686.6-.6s-.2686-.6-.6-.6h-1.2z" fill="#366bdc"/></g></svg>