<svg height="50" viewBox="0 0 50 50" width="50" xmlns="http://www.w3.org/2000/svg"><g fill="none"><rect fill="#bfd1f4" height="50" rx="25" width="50"/><rect fill="#4379e6" height="40" rx="20" width="40" x="5" y="5"/><path d="m27.3798 15.1149c-.4138-.1609-.8735.046-1.0345.4828-.0229.092-.0459.1839-.0459.2759v5.1264h-2.5288l-.0689-5.1954c0-.4368-.3678-.8046-.8046-.8046-.092 0-.1609.023-.2529.046-2.8966.9885-4.8046 3.7241-4.7586 6.7586-.023 2.6207 1.4023 5.0345 3.7241 6.2759v6.1149c0 .4368.3678.8046.8046.8046h5.1724c.4368 0 .8046-.3678.8046-.8046v-6.046c2.2989-1.2414 3.7242-3.6781 3.7242-6.2988-.023-2.9885-1.9081-5.6782-4.7357-6.7357z" fill="#fff"/></g></svg>