<svg height="50" viewBox="0 0 50 50" width="50" xmlns="http://www.w3.org/2000/svg"><g fill="none"><rect fill="#bfd1f4" height="50" rx="25" width="50"/><rect fill="#4379e6" height="40" rx="20" width="40" x="5" y="5"/><g fill="#fff" transform="translate(15 15)"><path d="m1.0478 7.622c1.7292 1.0282 5.9795 3.5514 8.1016 4.768.26.1491.5549.228.8506.228.2958 0 .5907-.0789.8515-.2284 2.1213-1.2162 6.3715-3.7394 8.1008-4.7681.4057-.242.6477-.6579.6477-1.1126s-.242-.8706-.6477-1.113c-1.3364-.7948-5.8679-3.4875-8.1017-4.7681-.2627-.1509-.5542-.2292-.8507-.22801359-.2874.00121359-.5796.07721359-.8547.23051359 0 0-6.075 3.5681-8.0966 4.7651-.4065.2412-.6486.6571-.6486 1.1135 0 .4547.2421.8706.6478 1.1131z"/><path d="m18.9676 8.8986c-.1372-.0848-.3111-.0865-.45-.003-2.3497 1.3948-5.5108 3.2647-7.2324 4.2512-.7858.45-1.7855.4496-2.5696.0004-1.7377-.9963-4.8928-2.8619-7.2332-4.2516-.138-.0831-.3128-.0818-.4508.003-.3955.2425-.6316.6542-.6316 1.1012 0 .4547.2421.8706.6477 1.113 1.7293 1.0283 5.9796 3.5515 8.1017 4.768.26.1492.5549.228.8506.228.2958 0 .5907-.0788.8515-.2284 2.1213-1.2161 6.3715-3.7393 8.1008-4.768.4057-.242.6477-.6579.6477-1.1126 0-.447-.2361-.8587-.6324-1.1012z" opacity=".5"/><path d="m18.9676 12.3889c-.1372-.0839-.3111-.0865-.45-.003-2.3497 1.3948-5.5108 3.2646-7.2324 4.2512-.7858.45-1.7855.4496-2.5696.0004-1.7377-.9963-4.8928-2.8619-7.2332-4.2516-.138-.0831-.3128-.0809-.4508.003-.3955.2425-.6316.6541-.6316 1.1011 0 .4547.2421.8706.6477 1.1131 1.7293 1.0283 5.9796 3.5514 8.1017 4.768.26.1492.5549.228.8506.228.2958 0 .5907-.0788.8515-.2284 2.1213-1.2162 6.3715-3.7393 8.1008-4.768.4057-.2421.6477-.6579.6477-1.1126 0-.4471-.2361-.8587-.6324-1.1012z" opacity=".5"/></g></g></svg>