<svg height="50" viewBox="0 0 50 50" width="50" xmlns="http://www.w3.org/2000/svg"><g fill="none"><rect fill="#bfd1f4" height="50" rx="25" width="50"/><rect fill="#4379e6" height="40" rx="20" width="40" x="5" y="5"/><path d="m25 15c-2.6924 0-4.8828 2.1904-4.8828 4.8828s2.1904 4.8828 4.8828 4.8828 4.8828-2.1904 4.8828-4.8828-2.1904-4.8828-4.8828-4.8828zm.0623 10.9375h-.1519c-.728 0-1.4468.1035-2.1365.3021l2.2267 3.4431 2.2241-3.4391c-.6974-.2013-1.425-.3061-2.1624-.3061zm7.661 6.561c-.3847-2.5303-2.0061-4.7326-4.3748-5.8344l-2.7626 4.2718v4.0641h7.5177zm-11.0731-5.8383c-2.3807 1.1085-3.9915 3.3236-4.3739 5.8383l-.3803 2.5015h7.5177v-4.0666z" fill="#fff"/></g></svg>