<svg height="50" viewBox="0 0 50 50" width="50" xmlns="http://www.w3.org/2000/svg" xmlns:xlink="http://www.w3.org/1999/xlink"><linearGradient id="a" x1="100.862%" x2="-13.057%" y1="-4.545%" y2="12.443%"><stop offset="0" stop-color="#467ce8"/><stop offset="1" stop-color="#2e63d6"/></linearGradient><g fill="none" fill-rule="evenodd"><g fill-rule="nonzero"><rect fill="url(#a)" height="50" rx="25" width="50"/><path d="m14 16.5c0-1.3807 1.1193-2.5 2.5-2.5h11c1.3807 0 2.5 1.1193 2.5 2.5v18.5h-15c-.5523 0-1-.4477-1-1z" fill="#fff"/><rect fill="#9eb9f0" height="2.769" rx=".3" width="2.769" x="16" y="18"/><rect fill="#9eb9f0" height="2.769" rx=".3" width="2.769" x="20.616" y="18"/><rect fill="#9eb9f0" height="2.769" rx=".3" width="2.769" x="25.231" y="18"/><rect fill="#9eb9f0" height="2.769" rx=".3" width="2.769" x="16" y="24"/><rect fill="#9eb9f0" height="2.769" rx=".3" width="2.769" x="20.616" y="24"/><rect fill="#9eb9f0" height="2.769" rx=".3" width="2.769" x="25.231" y="24"/><path d="m20 30.5c0-.2761.2239-.5.5-.5h3c.2761 0 .5.2239.5.5v4.5h-4z" fill="#356adc"/><path d="m30 24h6.2812c.9493 0 1.7188.7695 1.7188 1.7188v8.5937c0 .3797-.3078.6875-.6875.6875h-7.3125z" fill="#fff"/></g><path d="m34.0001 28v4m0-4-1.3334 1.3333m1.3334-1.3333 1.3333 1.3333" stroke="#4076e3" stroke-linecap="round"/><path d="m30 24h1v11h-1z" fill="#3e74e2" fill-rule="nonzero"/></g></svg>