<svg height="183" viewBox="0 0 1091 183" width="1091" xmlns="http://www.w3.org/2000/svg"><path d="m931.51 16.4147c3.032-1.6219 6.695-1.5223 9.634.262l33.82 20.5297c6.11 3.7096 6.266 12.5216.291 16.4446l-26.636 17.489c-3.137 2.059-7.178 2.131-10.385.184l-36.658-22.252c-6.439-3.909-6.182-13.3382.459-16.891zm-905.8184 117.5963c2.2226-.574 4.5829.07 6.2061 1.693l17.8947 17.895c3.3673 3.367 2.0774 9.094-2.4083 10.693l-19.2039 6.843c-2.3588.841-4.9909.248-6.7616-1.523l-19.39298-19.393c-3.5481-3.548-1.89455-9.608 2.96388-10.863zm170.6044 10.919c.603-.983 1.682-1.571 2.834-1.545l15.469.34c2.375.052 3.889 2.557 2.831 4.684l-5.717 11.498c-.559 1.125-1.718 1.826-2.974 1.798l-16.793-.369c-2.502-.055-4.001-2.804-2.692-4.937zm639.059 12.407c.329-1.115.036-2.321-.767-3.16l-17.721-18.517c-1.635-1.709-4.491-1.148-5.358 1.053l-8.205 20.817c-.464 1.177-.201 2.516.674 3.43l19.29 20.157c1.722 1.8 4.746 1.066 5.452-1.323zm-824.355-156.5502 114.435 63.4592c10.728 5.949 24.047-.99 25.32-13.19l5.245-50.2692h-72.5zm1079.35 25.2132-63.45 114.435c-5.95 10.728.99 24.047 13.19 25.32l50.27 5.245-.01-72.5z" fill="#fff" opacity=".1"/></svg>