<svg width="161" height="34" viewBox="0 0 161 34" fill="none" xmlns="http://www.w3.org/2000/svg">
<path fill-rule="evenodd" clip-rule="evenodd" d="M16.3327 0H17.2704C18.0026 0 18.5928 0.59484 18.5928 1.32898V32.6673C18.5928 33.4052 17.9988 34 17.2704 34H16.3327C15.6005 34 15.0103 33.4014 15.0103 32.6673V1.33274C15.0103 0.594839 15.6043 0 16.3327 0ZM115.989 9.32811C115.19 8.57891 114.334 8.08949 112.989 8.08949C111.159 8.08949 110.158 9.26788 110.158 11.2595V11.8242H116.475V14.7043H110.158V23.8716H106.844V11.2557C106.844 7.68666 109.358 4.94964 112.93 4.94964C114.872 4.94964 116.389 5.69883 117.76 6.99393L115.989 9.32811ZM122.246 4.98047H118.933V23.8723H122.246V4.98047ZM44.8433 7.18373H48.381V20.5413H55.7926V23.8731H48.381H44.8433V20.5413V7.18373ZM64.3469 9.99177C60.204 9.99177 57.0324 13.1617 57.0324 17.2202C57.0324 21.3954 60.006 24.4486 64.8064 24.4486C66.9207 24.4486 69.0949 23.5827 70.5219 22.4043L69.0351 19.897C68.2058 20.5897 66.5472 21.3088 64.8923 21.3088C62.6434 21.3088 61.0557 20.2283 60.5327 18.5153H71.3774V17.2202C71.3774 13.158 68.4636 9.99177 64.3469 9.99177ZM64.3469 13.0149C66.267 13.0149 67.5222 14.1142 67.9667 15.7783H60.5477C61.0333 14.0992 62.4043 13.0149 64.3469 13.0149ZM81.5239 10.0487C78.6101 10.0487 75.3227 11.3174 73.7798 12.9288V23.843H77.0934V14.4083C78.1618 13.6591 79.473 13.245 80.8365 13.245C82.667 13.245 83.6644 14.2239 83.6644 16.095V23.843H86.9817V15.2328C86.9817 11.9198 84.9831 10.0487 81.5239 10.0487ZM132.363 10.1056C128.19 10.1056 124.962 13.2756 124.962 17.334C124.962 21.3963 128.19 24.5625 132.363 24.5625C136.536 24.5625 139.763 21.3925 139.763 17.334C139.767 13.2756 136.536 10.1056 132.363 10.1056ZM132.363 21.3662C130.106 21.3662 128.362 19.608 128.362 17.334C128.362 15.0601 130.106 13.3019 132.363 13.3019C134.619 13.3019 136.364 15.0601 136.364 17.334C136.364 19.6118 134.623 21.3662 132.363 21.3662ZM154.825 18.3349L157.541 10.3949H161L156.14 23.9897H153.827L150.581 15.2854L147.338 23.9897H145.022L140.166 10.3949H143.625L146.341 18.3349L149.225 10.3949H151.941L154.825 18.3349ZM100.441 11.1322C99.3651 10.4809 97.9942 10.0178 96.1824 10.0178C92.2375 10.0178 89.3236 13.1576 89.3236 17.2199C89.3236 21.2821 92.2674 24.4219 96.2122 24.4219C99.3838 24.4219 102.215 23.1833 103.758 21.572V4.98047H100.445V11.1322H100.441ZM92.7269 17.2199C92.7269 14.9459 94.4415 13.1878 96.8436 13.1878C98.3752 13.1878 99.5258 13.6584 100.445 14.4452V20.1263C99.4772 20.8491 98.3304 21.2557 96.8436 21.2557C94.4415 21.252 92.7269 19.4938 92.7269 17.2199ZM24.6071 7.18373H23.6694C22.941 7.18373 22.347 7.77857 22.347 8.51648V25.4054C22.347 26.1396 22.9372 26.7382 23.6694 26.7382H24.6071C25.3355 26.7382 25.9295 26.1433 25.9295 25.4054V8.51271C25.9258 7.77857 25.3355 7.18373 24.6071 7.18373ZM9.01856 7.18373H9.95621C10.6847 7.18373 11.2786 7.77857 11.2786 8.51271V25.4054C11.2786 26.1433 10.6847 26.7382 9.95621 26.7382H9.01856C8.28637 26.7382 7.69613 26.1396 7.69613 25.4054V8.51648C7.69613 7.77857 8.29011 7.18373 9.01856 7.18373ZM31.1861 19.4689C32.5313 19.4689 33.6218 18.3699 33.6218 17.0142C33.6218 15.6586 32.5313 14.5596 31.1861 14.5596C29.841 14.5596 28.7505 15.6586 28.7505 17.0142C28.7505 18.3699 29.841 19.4689 31.1861 19.4689ZM4.87144 17.0142C4.87144 18.3699 3.78096 19.4689 2.43578 19.4689C1.0906 19.4689 0.00012207 18.3699 0.00012207 17.0142C0.00012207 15.6586 1.0906 14.5596 2.43578 14.5596C3.78096 14.5596 4.87144 15.6586 4.87144 17.0142Z" fill="#FF9F04"/>
</svg>
